<?xml version="1.0" encoding="iso-8859-1"?>
<!-- Generator: Adobe Illustrator 19.0.0, SVG Export Plug-In . SVG Version: 6.00 Build 0)  -->
<svg xmlns="http://www.w3.org/2000/svg" xmlns:xlink="http://www.w3.org/1999/xlink" version="1.1" id="Layer_1" x="0px" y="0px" viewBox="0 0 501.993 501.993" style="enable-background:new 0 0 501.993 501.993;" xml:space="preserve" width="512" height="512">
<g>
	<g>
		<rect x="116.832" y="165.196" style="fill:#C1272D;" width="86.462" height="41.74"/>
		<g>
			<path style="fill:#C1272D;" d="M105.686,75.131c1.325-12.117-0.785-23.588-5.367-32.839c19.993,3.74,33.606,27.206,30.699,53.782     c-3.015,27.572-22.665,48.042-43.89,45.721c-11.897-1.301-21.761-9.489-27.604-21.288c0.749,0.14,1.505,0.261,2.272,0.345     C83.021,123.173,102.671,102.703,105.686,75.131z"/>
			<path style="fill:#C1272D;" d="M53.017,12.144c9.143-3.081,18.786-2.752,28.033,0.35C62.42,27.1,55.326,57.454,65.384,87.299     c8.043,23.864,25.014,41.342,43.593,47.575c-1.775,3.663,26.829,69.861,10.78,71.865c-37.907,4.735-82.701-77.351-94.746-113.092     S25.504,21.416,53.017,12.144z"/>
		</g>
		<rect x="298.7" y="165.196" style="fill:#C1272D;" width="86.462" height="41.74"/>
		<path style="fill:#B3B3B3;" d="M209.257,96.361c-4.203-6.518-11.521-10.837-19.853-10.837c-13.04,0-23.611,10.571-23.611,23.611    c0,13.04,10.571,23.612,23.611,23.612c0.249,0,0.495-0.011,0.742-0.019C194.677,115.868,201.241,104.223,209.257,96.361z"/>
		<path style="fill:#B3B3B3;" d="M337.459,109.135c0-13.04-10.571-23.611-23.611-23.611c-8.679,0-16.26,4.686-20.363,11.664    c7.633,7.832,13.899,19.221,18.275,35.462c0.689,0.061,1.384,0.097,2.088,0.097C326.887,132.746,337.459,122.175,337.459,109.135z    "/>
		<path style="fill:#C1272D;" d="M318.893,198.424c0-27.786-2.49-49.228-6.917-65.697c-4.532-16.859-11.095-28.504-19.111-36.367    c-11.532-11.311-26.063-14.813-41.855-14.813c-16.167,0-31.011,3.676-42.67,15.639c-7.633,7.832-13.899,19.221-18.275,35.462    c-4.44,16.479-6.938,37.946-6.938,65.776c0,74.344,17.798,172.484,42.956,214.463l-34.676,34.676    c7.791,25.711,31.665,44.43,59.92,44.43s52.129-18.72,59.92-44.43l-35.077-35.077C301.204,370.29,318.893,272.538,318.893,198.424    z"/>
		<g>
			<path style="fill:#C1272D;" d="M396.307,75.131c-1.325-12.117,0.785-23.588,5.367-32.839     c-19.993,3.74-33.606,27.206-30.699,53.782c3.015,27.572,22.665,48.042,43.89,45.721c11.897-1.301,21.761-9.489,27.604-21.288     c-0.749,0.14-1.505,0.261-2.272,0.345C418.973,123.173,399.322,102.703,396.307,75.131z"/>
			<path style="fill:#C1272D;" d="M448.977,12.144c-9.143-3.081-18.786-2.752-28.033,0.35c18.63,14.606,25.724,44.96,15.666,74.805     c-8.043,23.864-25.014,41.342-43.593,47.575c1.775,3.663-26.829,69.861-10.78,71.865c37.907,4.735,82.701-77.351,94.746-113.092     S476.489,21.416,448.977,12.144z"/>
		</g>
	</g>
	<g>
		<path d="M273.701,296.275c4.839,0,9.093-3.52,9.867-8.45l2.028-12.919c0.857-5.456-2.872-10.573-8.328-11.43    c-5.453-0.856-10.573,2.872-11.43,8.328l-2.028,12.919c-0.857,5.456,2.872,10.573,8.328,11.43    C272.663,296.235,273.185,296.275,273.701,296.275z"/>
		<path d="M271.144,238.014c-0.857,5.456,2.872,10.573,8.328,11.43c0.526,0.083,1.048,0.122,1.563,0.122    c4.839,0,9.093-3.52,9.867-8.45l8.567-54.563c0.286-1.821,0.063-3.688-0.646-5.391l-19.876-47.801    c-2.12-5.098-7.973-7.518-13.073-5.394c-5.1,2.12-7.515,7.974-5.394,13.073l18.793,45.196L271.144,238.014z"/>
		<path d="M236.782,127.968c-5.101-2.125-10.953,0.295-13.073,5.394l-19.876,47.801c-0.708,1.703-0.932,3.569-0.646,5.391    l15.901,101.271c0.774,4.932,5.027,8.451,9.867,8.45c0.515,0,1.038-0.04,1.563-0.122c5.456-0.856,9.185-5.974,8.328-11.43    l-15.463-98.485l18.793-45.196C244.296,135.942,241.881,130.088,236.782,127.968z"/>
		<path d="M487.271,39.72c-6.321-18.396-18.787-31.555-35.101-37.053h0c-10.893-3.67-22.79-3.551-34.408,0.347    c-3.486,1.17-6.049,4.159-6.674,7.783c-0.624,3.624,0.791,7.298,3.685,9.567c15.761,12.355,20.843,38.567,12.359,63.741    c-2.183,6.479-5.161,12.513-8.737,17.904c-6.472-6.876-10.942-16.933-12.148-27.965c-1.066-9.748,0.492-19.449,4.387-27.314    c1.682-3.396,1.299-7.451-0.988-10.474c-2.287-3.021-6.088-4.491-9.812-3.793c-25.209,4.716-42.253,33.135-38.801,64.697    c1.874,17.141,9.449,32.51,20.696,42.647c-0.797,2.577-1.805,5.673-2.7,8.421c-0.783,2.405-1.528,4.72-2.24,6.967h-50.344    c-0.633-4.924-1.386-9.618-2.269-14.08c13.494-4.369,23.282-17.051,23.282-31.98c0-18.533-15.078-33.611-33.612-33.611    c-7.834,0-15.328,2.788-21.255,7.622c-11.045-7.79-24.742-11.598-41.581-11.598c-16.474,0-29.948,3.671-40.874,11.138    c-5.829-4.582-13.075-7.163-20.733-7.163c-18.533,0-33.611,15.078-33.611,33.611c0,14.501,9.232,26.886,22.127,31.589    c-0.916,4.579-1.693,9.405-2.344,14.472h-50.372c-0.712-2.247-1.456-4.562-2.24-6.967c-0.895-2.748-1.903-5.844-2.7-8.421    c11.243-10.144,18.825-25.541,20.695-42.647c3.452-31.563-13.592-59.981-38.801-64.697c-3.728-0.697-7.524,0.772-9.812,3.794    s-2.67,7.077-0.988,10.474c3.896,7.865,5.454,17.565,4.387,27.313c-1.207,11.042-5.674,21.094-12.146,27.968    c-3.577-5.391-6.555-11.427-8.739-17.906c-8.484-25.174-3.401-51.386,12.36-63.741c2.894-2.27,4.309-5.943,3.685-9.567    c-0.625-3.624-3.188-6.613-6.674-7.783C72.615-0.884,60.717-1.003,49.824,2.667h0C33.509,8.165,21.043,21.324,14.722,39.72    c-6.003,17.47-5.714,37.756,0.813,57.121c6.275,18.62,20.773,48.829,39.017,74.347c21.728,30.392,42.537,45.755,61.938,45.755    c0.099,0,0.197-0.008,0.296-0.009c0.016,0,0.031,0.002,0.047,0.002h56.643c0.212,5.881,0.519,11.897,0.922,18.014l-49.705,18.075    c-5.19,1.887-7.868,7.624-5.98,12.814c1.477,4.063,5.313,6.586,9.399,6.586c1.134,0,2.289-0.195,3.417-0.604l44.555-16.202    c0.592,6.113,1.27,12.276,2.032,18.455l-51.435,18.704c-5.19,1.887-7.868,7.625-5.98,12.815c1.477,4.062,5.313,6.585,9.399,6.585    c1.134,0,2.289-0.194,3.417-0.605l47.396-17.236c0.919,6.011,1.916,11.998,2.988,17.927l-50.263,18.278    c-5.19,1.887-7.868,7.624-5.98,12.814c1.477,4.063,5.313,6.586,9.399,6.586c1.134,0,2.289-0.195,3.417-0.604l47.355-17.22    c6.637,30.808,15.361,58.879,25.849,79.036l-29.338,29.337c-2.608,2.608-3.569,6.441-2.499,9.972    c4.424,14.6,13.6,27.72,25.838,36.942c12.663,9.544,27.758,14.588,43.652,14.588s30.99-5.044,43.653-14.588    c12.237-9.223,21.414-22.343,25.837-36.943c1.07-3.53,0.109-7.362-2.499-9.971l-29.76-29.76    c10.41-20.168,19.073-48.154,25.67-78.833l47.956,17.439c1.128,0.41,2.282,0.604,3.417,0.604c4.086,0,7.922-2.523,9.399-6.586    c1.887-5.189-0.79-10.928-5.98-12.814l-50.871-18.499c1.071-5.931,2.066-11.919,2.984-17.93l48.009,17.458    c1.128,0.411,2.282,0.605,3.417,0.605c4.086,0,7.922-2.523,9.399-6.585c1.887-5.19-0.79-10.929-5.98-12.815l-52.051-18.928    c0.761-6.181,1.438-12.344,2.029-18.457l45.175,16.428c1.128,0.41,2.282,0.604,3.417,0.604c4.086,0,7.922-2.523,9.399-6.586    c1.887-5.189-0.79-10.928-5.98-12.814l-50.329-18.301c0.396-6.04,0.7-11.981,0.909-17.788h56.616c0.016,0,0.031-0.002,0.047-0.002    c0.099,0.001,0.197,0.009,0.296,0.009c19.4,0,40.212-15.365,61.938-45.755c18.244-25.518,32.742-55.727,39.017-74.347    C492.986,77.476,493.274,57.19,487.271,39.72z M385.942,66.546c-0.068,3.209,0.072,6.444,0.424,9.672    c1.764,16.131,8.516,30.598,18.62,40.687c-3.503,2.824-7.231,5.152-11.104,6.895c-6.911-6.895-11.715-17.371-12.966-28.813    C379.763,84.452,381.773,74.337,385.942,66.546z M370.923,175.195c-2.283,8.835-3.536,15.955-3.598,21.74h-38.44    c-0.024-7.655-0.231-14.893-0.623-21.74H370.923z M327.459,109.135c0,5.655-3.468,10.51-8.388,12.563    c-3.226-9.499-7.245-17.543-12.143-24.267c2.069-1.224,4.453-1.908,6.919-1.908C321.352,95.524,327.459,101.63,327.459,109.135z     M189.404,95.524c2.144,0,4.21,0.502,6.062,1.425c-4.982,6.711-9.074,14.738-12.351,24.253c-4.348-2.275-7.323-6.829-7.323-12.067    C175.792,101.63,181.898,95.524,189.404,95.524z M173.759,175.195c-0.393,6.847-0.6,14.086-0.624,21.74h-38.467    c-0.063-5.786-1.315-12.905-3.598-21.74H173.759z M115.627,76.218c0.353-3.228,0.493-6.463,0.424-9.671    c4.168,7.791,6.179,17.905,5.026,28.439c-1.249,11.418-6.059,21.912-12.97,28.812c-3.872-1.743-7.597-4.069-11.099-6.892    C107.113,106.821,113.862,92.361,115.627,76.218z M34.487,90.454c-10.265-30.459-0.52-61.338,21.724-68.834h0    c1.625-0.548,3.276-0.958,4.952-1.231c-11.28,18.891-13.668,45.138-5.254,70.104c8.073,23.956,24.346,42.836,44.191,51.646    c0.842,3.054,2.12,6.977,3.849,12.285c2.689,8.255,6.036,18.528,8.278,27.714c1.875,7.683,2.382,12.187,2.447,14.716    C86.541,194.065,46.887,127.247,34.487,90.454z M269.099,419.557l30.588,30.588c-1.147,2.694-2.508,5.252-4.047,7.669    l-8.669-8.669c-3.905-3.904-10.237-3.904-14.143,0c-3.905,3.905-3.905,10.237,0,14.143l9.034,9.034    c-6.051,4.298-13.028,7.307-20.535,8.732v-16.887c0-5.522-4.477-10-10-10s-10,4.478-10,10v16.887    c-7.506-1.426-14.484-4.434-20.535-8.732l9.034-9.034c3.905-3.905,3.905-10.237,0-14.143c-3.905-3.904-10.237-3.904-14.142,0    l-8.668,8.669c-1.539-2.417-2.9-4.974-4.047-7.669l30.187-30.187c3.243-3.243,3.864-8.277,1.506-12.212    c-22.902-38.214-41.534-132.115-41.534-209.321c0-25.681,2.219-46.937,6.594-63.175c3.68-13.658,8.989-24.116,15.781-31.084    c8.39-8.608,19.672-12.618,35.508-12.618c15.465,0,26.54,3.798,34.853,11.951c7.121,6.985,12.657,17.692,16.456,31.824    c4.362,16.228,6.574,37.458,6.574,63.102c0,76.813-18.538,170.552-41.323,208.958    C265.239,411.314,265.868,416.325,269.099,419.557z M467.507,90.454c-12.4,36.793-52.054,103.61-80.186,106.398    c0.065-2.529,0.571-7.034,2.447-14.716c2.242-9.186,5.589-19.459,8.278-27.714c1.729-5.309,3.007-9.231,3.849-12.285    c19.845-8.81,36.118-27.689,44.191-51.646c8.414-24.966,6.026-51.214-5.254-70.104c1.675,0.273,3.327,0.684,4.951,1.231    C468.027,29.116,477.771,59.995,467.507,90.454z"/>
	</g>
</g>















</svg>
